SplineFontDB: 3.2
FontName: tegakintv
FullName: tegakintv
FamilyName: tegakintv
Weight: Regular
Copyright: Copyright (c) 2023, cet
UComments: "2023-10-11: Created with FontForge (http://fontforge.org)"
Version: 001.000
ItalicAngle: 0
UnderlinePosition: -100
UnderlineWidth: 50
Ascent: 800
Descent: 200
InvalidEm: 0
LayerCount: 2
Layer: 0 0 "+gMyXYgAA" 1
Layer: 1 0 "+Uk2XYgAA" 0
XUID: [1021 230 -1591853534 4236]
OS2Version: 0
OS2_WeightWidthSlopeOnly: 0
OS2_UseTypoMetrics: 1
CreationTime: 1697032448
ModificationTime: 1697034089
OS2TypoAscent: 0
OS2TypoAOffset: 1
OS2TypoDescent: 0
OS2TypoDOffset: 1
OS2TypoLinegap: 0
OS2WinAscent: 0
OS2WinAOffset: 1
OS2WinDescent: 0
OS2WinDOffset: 1
HheadAscent: 0
HheadAOffset: 1
HheadDescent: 0
HheadDOffset: 1
OS2Vendor: 'PfEd'
MarkAttachClasses: 1
DEI: 91125
Encoding: sjis
UnicodeInterp: none
NameList: AGL For New Fonts
DisplaySize: -48
AntiAlias: 1
FitToEm: 0
WinInfo: 38 38 14
BeginPrivate: 0
EndPrivate
BeginChars: 65536 62

StartChar: zero
Encoding: 48 48 0
Width: 1000
Flags: H
LayerCount: 2
Fore
SplineSet
467 606 m 1
 412.198242188 577.641601562 377.668585992 513.877677276 373 446 c 0
 365.796028897 341.259758211 469.85833975 280.365297728 565 300 c 0
 613.408022373 319.648699401 625.922795159 376.896904304 623 422 c 0
 617.948739691 499.948492688 574.00390625 580.446289062 499 607 c 4
 467 606 l 1
475 698 m 1
 509 706 l 0
 525 706 l 0
 675.095809672 710.339385278 808.343709865 565.767253718 803 416 c 0
 817.558598044 264.46364996 682.188727659 153.13796852 535 166 c 0
 395.062461583 154.051720411 206.791586555 239.511072703 211 406 c 0
 205.96236417 528.187562526 263.006236727 690.670058723 403 700 c 0
 475 698 l 1
EndSplineSet
EndChar

StartChar: one
Encoding: 49 49 1
Width: 1000
Flags: H
LayerCount: 2
Fore
SplineSet
535 224 m 4
 545 310 l 0
 556.381262131 357.156768638 551.04368245 407.781919704 555 456 c 0
 555.849011277 524.79997622 556.352217434 593.91572339 531 660 c 0
 506.637780349 723.503702049 386.757877546 621.176420921 335 570 c 1
 341 564 l 0
 348.913895481 548.421969413 364.780087696 524.733188834 383 524 c 0
 412.300743219 525.880043141 420.885145273 543.910129779 449 552 c 0
 450.673508893 451.572890338 457.756707338 350.522833695 459 250 c 0
 447.879116874 202.20205119 309.556345878 265.376197918 325 190 c 0
 394.760826734 102.295118787 572.256099835 144.467352835 679 116 c 0
 704.041551895 129.23273909 691.247270968 162.997737524 695 184 c 0
 682.593153606 225.355861506 606.355530569 205.570768117 569 218 c 0
 557.72668349 221.75094833 544.19921875 220.954101562 535 224 c 4
EndSplineSet
EndChar

StartChar: two
Encoding: 50 50 2
Width: 1000
Flags: H
LayerCount: 2
Fore
SplineSet
369 510 m 4
 373 494 l 0
 383.662930018 482.928768934 401.39166596 477.95335802 417 476 c 0
 445.052431577 488.144576369 464.730046394 519.773890329 501 512 c 0
 526.746718146 512.616643231 557.744079617 492.525278652 551 462 c 0
 536.74115073 386.755476726 426.262649407 377.040967504 421 302 c 0
 387.789142338 192.750457684 517.806034247 217.211514001 583 198 c 0
 618.915075096 188.174147016 657.12884053 212.957094917 645 252 c 0
 621.552806735 295.598159955 526.99574895 263.274805708 485 292 c 0
 559.47551519 336.53298666 638.401888906 397.271685164 643 492 c 0
 656.271078124 571.962180621 555.735577219 591.031709702 501 606 c 0
 445.374353782 621.211693435 360.2265625 599.102539062 367 528 c 4
 365.330078125 521.87890625 370.600585938 517.23828125 369 510 c 4
EndSplineSet
EndChar

StartChar: three
Encoding: 51 51 3
Width: 1000
Flags: H
LayerCount: 2
Fore
SplineSet
291 599 m 4
 291 603 l 0
 299.207142743 630.137677302 336.420187629 644.472587899 363 627 c 0
 437.632189661 615.48597506 572.307122202 615.842268463 585 515 c 0
 575.218323775 470.889695729 526.366634116 459.393629134 491 445 c 0
 562.930785127 432.317278416 653.825342745 388.565538418 651 301 c 0
 630.245332455 226.53411958 543.982949986 207.074914177 477 211 c 0
 437.291001664 214.679069109 384.140812834 211.064182433 357 241 c 0
 367.32195887 257.118620385 357.100941464 291.93103256 381 297 c 0
 389.609859964 297.833921146 401.214354572 296.871412371 411 297 c 0
 448.256902817 294.909183648 511.736493417 298.670477846 511 349 c 0
 495.076467355 412.145262312 420.179402204 444.212040339 381 487 c 0
 400.04545589 492.322985128 435.456249682 514.598613789 419 533 c 0
 387.593068585 568.119245625 264.912109375 529.543945312 291 599 c 4
EndSplineSet
EndChar

StartChar: four
Encoding: 52 52 4
Width: 1000
Flags: H
LayerCount: 2
Fore
SplineSet
443 668 m 5
 390.292396425 576.204057745 142.960777971 449.193676402 241 410 c 0
 273.532262857 396.994399214 366.995155484 424.605943615 381 390 c 0
 378.238594015 326.692683084 371.280594772 263.459839174 373 200 c 0
 415.242651468 172.832797633 478.530955713 174.502712934 531 166 c 0
 530.817068527 192.719100012 538.114820446 219.473039642 535 246 c 0
 532.616704891 279.956808124 530.876590905 326.68305053 513 354 c 0
 582.680384325 347.112371995 670.664231481 359.542713794 641 454 c 0
 492.092629201 375.363637007 571.683644841 562.883301183 463 530 c 0
 456.083939632 530.474516168 451.824569348 529.842623657 445 526 c 0
 445.718431118 513.333333333 438.006884639 500.666666667 443 488 c 0
 431.066646895 485.691661454 447.625450162 459.607901389 431 462 c 0
 408.244027344 465.590629911 358.675334667 459.883778817 351 486 c 0
 381.498264537 549.241953575 456.121627824 576.35408972 485 636 c 0
 479.752322974 645.798030402 482.414550057 646.008160174 467 654 c 0
 443 668 l 5
EndSplineSet
EndChar

StartChar: five
Encoding: 53 53 5
Width: 1000
Flags: H
LayerCount: 2
Fore
SplineSet
289 630 m 4
 289 622 l 0
 274.841154898 549.77051556 268.822779974 475.229911083 261 402 c 0
 281.092504278 400.43324804 326.415708451 415.355130283 355 414 c 0
 398.16268279 400.706154496 408.984055535 366.776367697 405 328 c 0
 407.733361071 218.780944596 235.743843401 328.090142386 281 208 c 0
 264.744306094 141.878403051 370.747054208 189.488353731 399 172 c 0
 489.964449265 176.523618441 534.006702662 268.375628949 551 344 c 0
 549.01810806 443.171643606 422.812409681 463.918960182 357 494 c 0
 353.170573204 523.371188523 364.436363881 550.853707501 363 580 c 0
 363 588.666666667 363 597.333333333 363 606 c 0
 359 606 361 606 369 606 c 0
 405.229928678 606.360042486 446.295402199 592.159352677 479 594 c 0
 478.727318115 610.752740676 485.525312692 627.5724757 483 644 c 0
 444.166240932 684.383271152 338.997923339 720.455760361 301 676 c 0
 290.677583521 663.923264404 289.947265625 646.854492188 289 630 c 4
EndSplineSet
EndChar

StartChar: six
Encoding: 54 54 6
Width: 1000
Flags: H
LayerCount: 2
Fore
SplineSet
477 354 m 0
 551 335 l 0
 563.5904004 330.256201501 577.447347481 318.113642383 577 303 c 0
 577.241055603 267.681120204 546.017685553 239.234051214 511 245 c 0
 473.905514098 239.082883688 437.384850563 268.721633479 441 307 c 0
 442.787952877 325.931420888 455.703125 360.501953125 477 354 c 0
486 628 m 5
 346.787307153 582.443436385 325.68631513 418.903458911 324 292 c 0
 322.601909964 186.786888752 425.335594486 105.841437045 526 112 c 0
 640.457247017 106.194262054 715.009067453 223.331036587 714 328 c 0
 711.571829849 436.732535612 570.685742852 437.774708102 506 482 c 0
 518.04523441 526.635150636 569.807256312 555.230069445 572 604 c 0
 567.222229793 619.691349823 548.45637225 621.038692475 536 628 c 0
 486 628 l 5
EndSplineSet
EndChar

StartChar: seven
Encoding: 55 55 7
Width: 1000
Flags: H
LayerCount: 2
Fore
SplineSet
286 461 m 5
 281.251067292 491.099535568 287.070814478 510.243400566 292 545 c 0
 296.610568819 577.509974087 279.972958993 617.192504445 283 650 c 0
 302.116477606 650.628476454 321.090619405 690.862253139 346 659 c 0
 491.461858769 637.729100725 784.153193132 713.452826092 703 455 c 0
 667.563391916 400.865684133 718.014987171 297.764982749 688 242 c 0
 663.064966855 222.369322651 716.906492787 143.81963632 679 137 c 0
 620.28118023 143.466275483 495.863776042 113.756984663 526 215 c 0
 527.681725638 297.763622994 545.580184781 379.29346077 547 461 c 0
 555.102413503 531.045298418 457.109216611 509.047132897 415 518 c 0
 395.308263627 527.692017934 428.294935196 484.704892234 409 494 c 0
 402.305604433 463.500927794 416.63959034 435.282149446 415 404 c 0
 406.86580997 405.134501563 401.453676012 403.546199375 394 404 c 0
 356.621808741 398.943344931 321.950304706 422.836602786 286 419 c 0
 286 461 l 5
EndSplineSet
EndChar

StartChar: eight
Encoding: 56 56 8
Width: 1000
InSpiro: 1
Flags: H
LayerCount: 2
Fore
SplineSet
508 265 m 1
 523.619140625 255.544921875 524.666992188 257.55078125 543 257 c 0
 572.151817217 256.124187668 616.282083426 242.792620005 629 280 c 0
 643.022123467 321.022951608 583.769380738 368.26354179 541 374 c 0
 515.521396974 374.434588275 475.813481244 364.059548367 481 330 c 0
 477.226890466 304.876634905 483.561640294 285.473994085 505 268 c 0
 508 265 l 1
  Spiro
    508 265 v
    519.932 258.849 o
    529.259 257.217 o
    543 257 o
    575.392 254.308 o
    607.558 257.316 o
    629 280 o
    621.946 321.288 o
    585.896 356.224 o
    541 374 o
    512.996 370.363 o
    488.57 356.622 o
    481 330 o
    480.778 306.665 o
    488.423 286.238 o
    505 268 ]
    0 0 z
  EndSpiro
449 536 m 0
 458.322287226 523.203433076 474.629138952 516.082555223 493 522 c 0
 517.301042585 529.827617723 560.761716721 517.150649753 563 552 c 0
 568.497378319 606.218209815 503.824042709 613.339709753 463 616 c 0
 448.358296905 618.857425552 428.918979342 603.818576328 429 586 c 0
 429.080663278 568.26002106 429.166992188 537.1171875 449 536 c 0
  Spiro
    449 536 o
    460.455 525.376 o
    475.516 520.154 o
    493 522 o
    521.421 525.511 o
    549.28 530.484 o
    563 552 o
    548.62 592.071 o
    508.245 610.284 o
    463 616 o
    447.675 613.459 o
    434.515 602.318 o
    429 586 o
    429.811 565.423 o
    435.027 545.501 o
    0 0 z
  EndSpiro
359 476 m 1
 337.39655944 507.40701967 307.325672652 558.356792783 317 600 c 0
 330.891814367 659.79740849 398.373098035 697.880119199 459 690 c 0
 535.256227522 683.154543036 705.837718823 694.615202236 687 574 c 0
 678.950744792 533.825164444 646.37135027 505.364665371 623 476 c 0
 694.044135032 449.583719193 781.878924334 397.659916918 767 308 c 0
 772.120659096 197.078250098 662.203964106 122.967678881 559 142 c 0
 461.642196329 158.098284927 316.845184436 189.495504163 323 316 c 0
 331.942787975 364.692587681 351.233400829 430.225485329 367 468 c 0
 359 476 l 1
  Spiro
    359 476 v
    336.382 512.812 o
    318.777 556.368 o
    317 600 o
    346.473 651.618 o
    398.385 683.477 o
    459 690 o
    556.081 683.698 o
    653.283 656.11 o
    687 574 o
    672.044 537.296 o
    648.165 505.5 o
    623 476 o
    695.146 440.673 o
    752.107 385.468 o
    767 308 o
    738.342 211.515 o
    659.838 151.892 o
    559 142 o
    453.284 166.119 o
    359.742 218.314 o
    323 316 o
    334.864 368.599 o
    350.589 422.676 o
    367 468 ]
    0 0 z
  EndSpiro
EndSplineSet
EndChar

StartChar: nine
Encoding: 57 57 9
Width: 1000
Flags: H
LayerCount: 2
Fore
SplineSet
494 555 m 0
 509 547 l 0
 507.065645171 544.434454101 511.762167364 543.569966496 511 541 c 0
 511.00393727 526.549360749 510.48411745 507.999572153 496 501 c 0
 478.074643995 501.054366593 453.872734793 503.630006293 449 523 c 0
 449.328943776 535.875117549 449.181462892 560.662004141 467 562 c 0
 473.322410153 562.474750455 490.686523438 561.936523438 494 555 c 0
581 594 m 1
 569.634655796 645.030439639 505.648299484 657.685706444 461 659 c 0
 390.199107403 661.084136641 366.55769573 575.70841397 372 519 c 0
 377.002167273 460.725234365 435.952958569 417.352885023 494 424 c 0
 507.082469447 428.172231374 527.414722026 425.490521627 537 439 c 0
 483.415201848 375.187373084 408.358187676 318.135997616 394 232 c 0
 393.589596346 223.334901116 407.215311914 221.947440885 414 222 c 0
 543.735832322 251.777997612 612.141399196 399.745870793 605 525 c 0
 604.030548129 542.003369596 594.155273438 553.41015625 592 570 c 4
 581 594 l 1
EndSplineSet
EndChar

StartChar: A
Encoding: 65 65 10
Width: 1000
Flags: H
LayerCount: 2
Fore
SplineSet
478 466 m 0
 490 463 l 0
 510.813850489 453.326050383 527.868820348 434.601870112 530 411 c 0
 531.824771985 386.590179773 524.349904114 356.318511165 495 354 c 0
 462.761548673 349.653656122 421.809611876 368.159104924 429 407 c 0
 429.480779445 430.230789377 434.298034269 462.995028321 464 464 c 0
 466.609117673 464.088279994 475.729492188 466.014648438 478 466 c 0
204 174 m 4
 201 170 l 0
 196.923051205 163.692914656 199.483627555 161.946827826 195 156 c 0
 186.11926054 133.769772289 243.549875963 156.961644459 235 144 c 0
 369.884704987 98.8076407261 370.514116399 258.278559266 437 288 c 0
 597.650954444 353.948081181 602.642235895 92.4978133804 755 152 c 0
 763.915183537 152.29810901 767.762513904 151.234705228 767 158 c 0
 698.357196113 332.318327391 593.857824969 501.727333107 493 658 c 0
 384.502007127 826.110612183 350.581054688 298.790039062 204 174 c 4
EndSplineSet
EndChar

StartChar: B
Encoding: 66 66 11
Width: 1000
Flags: H
LayerCount: 2
Fore
SplineSet
418 316 m 0
 436 316 l 0
 464.502682129 321.233062424 480.681488039 288.927449695 482 266 c 0
 476.718711478 238.972193332 446.158454691 242.017683369 426 242 c 0
 409.705976363 250.463623741 372.35283493 249.252426073 374 278 c 0
 374.52265186 287.121716616 404.948242188 319.790039062 418 316 c 0
385 484 m 1
 380.311523438 486.512695312 363.953847851 514.287961273 363 526 c 0
 361.559944803 543.682046698 379.135006203 559.550412276 396 556 c 0
 436.87240933 557.531801467 474.879804666 513.677902068 474 475 c 0
 472.383231665 452.330179977 440.709363307 457.345140519 426 457 c 0
 385 484 l 1
324 661 m 5
 304.826889893 582.718726567 270.604548125 496.748163812 285 415 c 0
 299.157909747 334.600778406 259.278549997 131.978617317 402 157 c 0
 473.02516766 149.977592608 588.489582961 175.773816707 588 265 c 0
 602.01862934 336.081442765 544.359276877 387.840422488 483 397 c 0
 530.464937925 429.481963034 583.054432987 478.425377228 576 541 c 0
 573.0319346 571.321350655 544.763658982 590.081779155 519 601 c 0
 342 655 l 0
 324 661 l 5
EndSplineSet
EndChar

StartChar: C
Encoding: 67 67 12
Width: 1000
Flags: H
LayerCount: 2
Fore
SplineSet
627 388 m 5
 625 396 l 0
 619.31264602 403.272891449 609.989236074 406.315731793 601 405 c 0
 584.554069224 380.352435174 563.005035427 343.603729465 522 352 c 0
 457.331087525 355.105292669 377.312093598 398.098486332 372 469 c 0
 367.380440562 509.241522549 412.752783441 525.359837132 445 528 c 0
 489.315278224 533.470752306 527.255690066 502.830244263 571 504 c 0
 592.090828014 496.725230189 602.627808061 517.326027469 599 535 c 0
 599 539 l 0
 576.184570312 601.416992188 486.533705526 626.382590176 430 627 c 0
 333.789944009 628.050718915 263.017408058 532.849295912 269 442 c 0
 276.364522546 326.343954921 401.910012082 258.932769567 508 267 c 0
 538.719838001 270.894327058 565.19030999 287.803328576 586 310 c 0
 613 343 l 0
 627 388 l 5
EndSplineSet
EndChar

StartChar: D
Encoding: 68 68 13
Width: 1000
Flags: H
LayerCount: 2
Fore
SplineSet
401 522 m 1
 401 500.666666667 405.687921844 478.811883622 401 458 c 0
 389.669688875 407.699435192 396.181029589 336.334472457 469 350 c 0
 506.574187013 378.132031668 513.615835583 440.809807851 523 486 c 0
 519.932689508 521.870572805 474.140030756 521.852691914 449 540 c 0
 401 522 l 1
339 674 m 4
 413 668 l 0
 525.689503219 647.291359964 650.334381672 561.015715931 641 430 c 0
 643.170488596 313.046162031 530.780218344 220.12583496 425 206 c 0
 237.99810868 200.591361362 313.818043042 438.294721458 295 552 c 0
 291.405514501 573.719154006 328.728515625 657.755859375 339 674 c 4
EndSplineSet
EndChar

StartChar: E
Encoding: 69 69 14
Width: 1000
Flags: H
LayerCount: 2
Fore
SplineSet
611 638 m 5
 565.502014893 638.145220151 518.863341143 649.406143374 471 652 c 0
 376.571068767 657.117384268 225.211899434 626.323126056 259 496 c 0
 243.22522386 328.1960065 307.657843974 81.1914216171 527 120 c 0
 584.470601822 113.742652217 624.067439297 164.119571382 635 212 c 0
 612.976021797 291.069917577 483.090023844 253.203490167 449 324 c 0
 464.634563277 432.517301068 672.085528277 291.569812422 651 424 c 0
 621.871609647 501.599553562 474.504267294 430.197866899 473 516 c 0
 479.176167171 545.205659117 513.407468652 540.817765112 533 542 c 0
 563.192273211 542.034214334 591.521311879 528.414491956 621 532 c 0
 646.551803125 533.907539181 681.844967143 553.887742889 677 582 c 0
 676.652080926 597.546575263 667.473540729 611.407320645 653 616 c 0
 611 638 l 5
EndSplineSet
EndChar

StartChar: F
Encoding: 70 70 15
Width: 1000
Flags: H
LayerCount: 2
Fore
SplineSet
587 640 m 5
 520.744754177 671.741611119 439.030741906 633.179226303 369 654 c 0
 212.671511035 700.477875324 173.662049942 557.122719221 189 442 c 0
 201.34489742 366.950275852 207.865341144 226.024000428 295 206 c 0
 332.355757037 200.930676659 376.324998371 232.271351395 369 272 c 0
 368.924904756 290.112498065 355.281448703 303.783845321 355 322 c 0
 383.464029002 397.946697913 562.524367766 308.756548277 551 420 c 0
 525.134574841 518.18844175 345.796537793 412.304225563 345 514 c 0
 337.334549242 537.046835068 356.826761769 554.757124447 379 546 c 0
 428.160260583 534.347660741 480.600317014 530.313813739 529 532 c 0
 570.362241039 523.63149732 607.492477584 566.647645125 611 604 c 0
 611.196834061 609.20741872 609.932074525 612.54881187 607 618 c 0
 587 640 l 5
EndSplineSet
EndChar

StartChar: G
Encoding: 71 71 16
Width: 1000
Flags: H
LayerCount: 2
Fore
SplineSet
661 524 m 5
 633.767717435 589.587523412 550.695132883 602.241900775 487 612 c 0
 339.759035305 634.557327042 244.310745746 485.173599308 267 352 c 0
 283.572528938 256.545223506 384.704172386 200.980163626 471 198 c 0
 544.820650505 208.922806079 651.776384721 245.828067665 657 332 c 0
 660.441870657 403.562536726 600.686786935 476.760246378 521 466 c 0
 489.107983577 465.048495331 445.60555398 443.186514794 457 406 c 0
 447.15550393 328.606027573 541.914938628 383.501724996 553 336 c 0
 548.214371636 305.953763737 514.819353752 313.107885291 493 312 c 0
 420.746467696 319.239884256 387.095871024 384.524495048 395 450 c 0
 382.029862374 503.963210445 437.370444666 531.517882691 479 520 c 0
 530.584580802 513.949326388 574.717869826 500.636481547 625 496 c 0
 631 496 l 0
 661 524 l 5
EndSplineSet
EndChar

StartChar: H
Encoding: 72 72 17
Width: 1000
Flags: H
LayerCount: 2
Fore
SplineSet
259 626 m 4
 247.421487371 561.264856787 240.8928102 468.201395078 241 396 c 0
 241.130631363 308.008729941 265.182140971 175.721892165 379 180 c 0
 408.054814226 201.334037022 410.061690374 239.097735304 409 270 c 0
 407.173682576 293.623397743 401.236580937 316.249187732 399 340 c 0
 408.69975163 377.620649568 459.194228113 370.80994067 487 374 c 0
 509.545466168 365.184533028 560.173448276 381.699818379 553 342 c 0
 552.202762636 318.804768405 547.68405491 297.059091789 549 274 c 0
 546.319638313 234.420027728 596.510968371 201.621586818 631 206 c 0
 757.178901116 217.29178912 697.349353239 393.139966247 719 476 c 0
 729.872679867 559.173031396 693.262371676 659.02568029 587 644 c 0
 516.55415899 620.608540067 605.375426531 436.190323392 467 470 c 0
 435.924875902 452.940721435 426.380953551 489.018580651 429 508 c 0
 430.107507263 530.569882557 432.482622846 553.759589219 431 576 c 0
 426.376201991 645.360301124 312.970703125 629.842773438 259 626 c 4
EndSplineSet
EndChar

StartChar: I
Encoding: 73 73 18
Width: 1000
Flags: H
LayerCount: 2
Fore
SplineSet
559 648 m 4
 559.245117188 648.196289062 558.754882812 647.803710938 558.754882812 647.803710938 c 0
 604.222543466 591.494669062 603.110726728 511.308156304 611 448 c 0
 624.788130217 337.35595551 594.144912801 210.420941503 479 162 c 0
 398.078061451 213.762715082 391.346652898 355.879159027 375 448 c 0
 380.661335293 529.601936817 384.927883018 656.828677872 487 670 c 0
 498.513110682 671.485644601 557.413085938 649.38671875 559 648 c 4
EndSplineSet
EndChar

StartChar: J
Encoding: 74 74 19
Width: 1000
Flags: H
LayerCount: 2
Fore
SplineSet
325 686 m 5
 403.130869173 658.399606729 662.159847451 681.130032124 593 612 c 0
 559.230174301 578.244732726 466.149999032 631.790131644 487 556 c 0
 493.440727725 465.046888067 517.853200499 376.23838067 525 286 c 0
 534.790921735 203.539862206 446.55704544 178.896938695 379 186 c 0
 336.018914305 195.944392749 228.502389531 196.747695291 241 270 c 0
 293.31027467 326.235583781 446.581627587 237.602114343 429 362 c 0
 429.521002341 419.079558649 410.340135603 474.991003409 413 532 c 0
 413 551.333333333 413 570.666666667 413 590 c 0
 407.936333574 632.216093592 318.325315928 616.25276518 331 662 c 0
 325 686 l 5
EndSplineSet
EndChar

StartChar: K
Encoding: 75 75 20
Width: 1000
Flags: H
LayerCount: 2
Fore
SplineSet
252 647 m 4
 239.8515625 571.359375 202.62976548 496.014228893 227 422 c 0
 259.251476227 324.049849307 171.532671941 107.050956025 333 104 c 0
 383.875579782 123.096749078 371.026788913 200.853652848 385 246 c 0
 387.379487179 268 381.772583826 290 383 312 c 0
 459.075702787 258.976576473 537.974754228 194.429778192 637 198 c 0
 669.790533856 217.603439206 689.37372899 272.375736927 683 312 c 0
 640.668489502 404.028998853 502.55946773 395.378494407 447 474 c 0
 511.693970089 516.602259185 623.658386714 503.323265956 655 584 c 0
 650.674081509 640.840645771 592.227417741 669.080320366 539 668 c 0
 480.823041134 653.932270063 374.711420131 535.773002607 375 610 c 0
 375.164324407 652.266660434 350.262695312 739.72265625 302 715 c 4
 270.875976562 699.056640625 268.280273438 696.288085938 252 647 c 4
EndSplineSet
EndChar

StartChar: L
Encoding: 76 76 21
Width: 1000
Flags: H
LayerCount: 2
Fore
SplineSet
277 614 m 4
 303 610 l 0
 358.789092837 584.435084433 426.942656072 558.693625406 431 490 c 0
 440.204499671 437.667918165 412.632406492 391.873869221 411 340 c 0
 441.599925061 247.033838241 684.910328603 360.970036398 667 214 c 0
 688.504246248 116.966721813 610.643204429 84.4894516185 523 106 c 0
 197.585632644 11.4572588096 281.985811078 356.663071656 265 550 c 0
 261.003325251 595.491193559 278.033203125 592.53125 277 614 c 4
EndSplineSet
EndChar

StartChar: M
Encoding: 77 77 22
Width: 1000
Flags: H
LayerCount: 2
Fore
SplineSet
283 258 m 4
 336.650850929 243.140932023 386.867320717 262.414971386 381 330 c 0
 377.96178127 364.996910807 376.881591757 402.354662153 383 436 c 0
 404.882481359 427.015355382 410.54011812 399.791984019 437 398 c 0
 468.914612722 393.734187598 489.625361798 428.525689724 521 432 c 0
 556.85135055 441.156549921 563.880398842 400.474833984 569 374 c 0
 568.482047654 348.862365597 554.337732703 326.975251984 553 302 c 0
 550.871885834 281.88287237 554.852628712 254.044661587 579 252 c 0
 615.259269411 249.306142698 658.654875928 262.502906579 659 302 c 0
 657.3593761 343.672244554 652.894327024 385.77231964 655 428 c 0
 650.326471293 471.064904741 635.344854536 544.76548465 585 550 c 0
 534.772182071 554.671980217 504.870857162 497.454138559 473 474 c 0
 420.962165825 482.987489435 428.343201757 558.649751929 381 572 c 0
 306.820299906 588.303791262 280.661835879 505.661432051 281 448 c 0
 281.386374262 382.118104552 290.024414062 322.819335938 283 258 c 4
EndSplineSet
EndChar

StartChar: N
Encoding: 78 78 23
Width: 1000
Flags: H
LayerCount: 2
Fore
SplineSet
279 242 m 4
 337 244 l 0
 351.019118157 244.385995999 372.240020693 256.298554661 373 276 c 0
 373.056204834 299.039276888 373.576726286 324.202847986 369 346 c 0
 401.420033504 313.672508068 446.110671783 243.456199159 507 254 c 0
 614.371352306 302.047774653 612.910674147 448.108118532 639 546 c 0
 648.739992343 581.926208191 625.674804497 613.456569076 587 612 c 0
 546.371402808 558.700604352 546.216177184 459.086593707 483 416 c 0
 397.384390161 424.553460362 405.63361338 561.448840352 315 570 c 0
 200.654830319 580.788313127 333.759765625 338.357421875 279 242 c 4
EndSplineSet
EndChar

StartChar: O
Encoding: 79 79 24
Width: 1000
Flags: H
LayerCount: 2
Fore
SplineSet
497 452 m 1
 494.109290401 458.624542831 459.571900999 452.021591926 433 456 c 0
 387.111081106 462.870597833 399.367696894 408.926556766 395 386 c 0
 392.42353879 324.442188697 471.94911861 308.931647736 515 316 c 0
 543.844228334 324.204716276 577.170641587 335.950239095 569 370 c 0
 571.338920417 395.324451333 552.035992397 416.76629404 537 434 c 0
 497 452 l 1
523 598 m 4
 549 592 l 0
 646.414674876 556.830072924 753.328242255 482.59139014 755 364 c 0
 775.614456675 214.93853283 585.119327406 173.553138319 475 184 c 0
 343.155942361 171.361311985 204.830363348 270.438121209 221 412 c 0
 238.748847619 567.387549477 394.174804688 624.038085938 523 598 c 4
EndSplineSet
EndChar

StartChar: P
Encoding: 80 80 25
Width: 1000
Flags: H
LayerCount: 2
Fore
SplineSet
391 524 m 1
 426.005526174 529.154925285 464.599748487 514.147694025 489 486 c 0
 471 476 l 0
 450.146814613 478.057572948 397.78515625 480.762695312 394 511 c 0
 391 524 l 1
288 590 m 4
 283 530 l 0
 272.475730438 434.638395628 278.160678548 337.557279321 267 242 c 0
 257.793753419 187.903250667 336.268873255 191.01146918 373 180 c 0
 398.780794938 166.954674447 429.443436108 188.576355846 427 218 c 0
 429.696930791 276.847890723 416.886984991 335.51137361 413 394 c 0
 438.979923358 466.184093438 589.999761507 390.059727689 607 486 c 0
 585.000496107 583.176868971 441.834439109 595.443164234 365 604 c 0
 339.465657732 606.843688009 299.380859375 615.426757812 288 590 c 4
EndSplineSet
EndChar

StartChar: Q
Encoding: 81 81 26
Width: 1000
Flags: H
LayerCount: 2
Fore
SplineSet
499 534 m 5
 495 534 l 0
 467.021027301 545.362429732 421.802109584 550.427072508 393 550 c 0
 346.034777032 529.677971248 309.800952179 482.186068507 313 432 c 0
 320.026854282 395.665023989 358.15363121 370.903872513 391 372 c 0
 425.188644508 366.707103185 461.904813029 392.743993168 483 414 c 0
 477.109454 424.137068837 448.390072568 440.800216398 447 462 c 0
 445.424841809 476.940147415 463.811147511 487.418266438 477 484 c 0
 495.447078579 484.326333958 510.573311592 462.638040373 527 466 c 0
 543.015197318 461.665326855 548.681583772 481.415649117 547 494 c 0
 546.9622139 510.61288567 524.633968301 515.297543933 519 524 c 0
 499 534 l 5
559 636 m 0
 629 618 l 0
 650.418664055 604.489137168 665.655142021 584.875600376 675 564 c 0
 686.056892393 503.062556021 634.378864747 455.576400719 617 408 c 0
 645.637131856 384.904764736 705.499745732 393.170669764 729 356 c 0
 732.849278911 320.396253216 691.066061411 294.43551154 669 282 c 0
 624.177126688 285.401041094 572.860554397 286.983970113 551 334 c 0
 529.362680654 282.988227254 456.345540231 265.325709655 399 258 c 0
 314.774215518 253.290897536 214.090920586 305.548760984 201 398 c 0
 164.1520882 530.12601174 279.928405918 639.275974917 409 640 c 0
 439.945187956 640.173586547 539.362304688 679.489257812 559 636 c 0
EndSplineSet
EndChar

StartChar: R
Encoding: 82 82 27
Width: 1000
Flags: H
LayerCount: 2
Fore
SplineSet
369 580 m 4
 353 578 l 0
 351 562 l 0
 351.717115846 542.922489188 358.86262516 517.268977684 383 518 c 0
 433.203336655 524.044531137 475.666219772 521.420856949 521 548 c 0
 513.520874841 593.153636118 461.318135139 580.859714299 427 590 c 0
 398.460793971 597.601126801 372.12109375 593.799804688 369 580 c 4
287 660 m 1
 393.951953262 663.911437968 638.805280912 662.363475114 611 542 c 0
 595.497270464 474.891798266 518.557342764 457.223135536 455 460 c 0
 518.387050786 400.788492275 591.576491171 354.603744434 649 292 c 0
 616.617750877 265.800291652 576.786121462 279.321753497 539 274 c 0
 464.942248013 280.111909667 379.701888477 332.983769117 351 396 c 0
 355.314117394 348.479563966 365.559359111 301.029423469 371 254 c 0
 363.383006694 249.440924945 334.476588182 242.525885007 323 246 c 0
 248.09427464 322.075976716 279.027607157 486.551873304 267 596 c 0
 269.05804544 611.333333333 270.951447246 626.666666667 267 642 c 0
 287 660 l 1
EndSplineSet
EndChar

StartChar: S
Encoding: 83 83 28
Width: 1000
Flags: H
LayerCount: 2
Fore
SplineSet
669 559 m 4
 657 571 l 0
 605.481445312 609.9375 542.986195782 621.416430331 477 622 c 0
 415.909582061 622.540272318 325.054443919 614.019002167 300 556 c 0
 316.077974389 445.215799943 494.925832044 462.827171407 504 346 c 0
 508.214317083 323.596875243 479.135092454 315.828787459 462 319 c 0
 442.149057574 317.214670853 425.892171693 321.318441034 408 328 c 0
 379.569572836 334.861629162 352.982244397 350.424731553 327 358 c 0
 315.972400507 344.383816553 308.669088082 321.28976112 312 301 c 0
 346.617164396 183.540071945 519.851566353 211.804754698 615 199 c 0
 673.26009787 213.317840677 698.011221249 278.542025995 696 334 c 0
 692.464344755 419.382612366 573.530867219 419.781492185 558 487 c 0
 565.844927974 512.285322159 600.752837219 502.903129019 621 499 c 0
 652.219765014 492.981637225 687.459960938 515.272460938 669 559 c 4
EndSplineSet
EndChar

StartChar: T
Encoding: 84 84 29
Width: 1000
Flags: H
LayerCount: 2
Fore
SplineSet
301 610 m 4
 244.060668682 599.951882709 212.611318342 504.843455252 245 504 c 0
 629 494 364.098518806 247.12646992 491 170 c 0
 522.61076547 173.43988268 588.694326159 160.525232162 595 204 c 0
 590.070256146 262.611731348 592.754795688 321.520762127 585 380 c 0
 541.797479531 535.298673568 782.96903249 405.864787849 795 506 c 0
 813.098142111 656.633047456 498.520507812 609.499023438 371 614 c 4
 286 617 318 613 301 610 c 4
EndSplineSet
EndChar

StartChar: U
Encoding: 85 85 30
Width: 1000
Flags: H
LayerCount: 2
Fore
SplineSet
255 604 m 5
 255 590 l 0
 257.000670195 547.768494469 250.999329805 506.231505531 253 464 c 0
 240.747854233 284.707595997 391.997380363 122.485893492 581 164 c 0
 756.895128257 111.096622825 804.6233936 304.616776061 787 436 c 0
 781.598115884 506.488290699 759.03769333 604.285165488 681 624 c 0
 550.417777279 610.182653833 666.143340331 369.606336249 501 376 c 0
 335.778313202 371.91567797 439.752186894 584.760701637 311 610 c 0
 255 604 l 5
EndSplineSet
EndChar

StartChar: V
Encoding: 86 86 31
Width: 1000
Flags: H
LayerCount: 2
Fore
SplineSet
203 640 m 4
 284.924969439 507.387691078 294.264242994 166.883430601 447 218 c 0
 608.123475694 271.923714319 700.285621829 456.291102552 713 618 c 0
 702.514776667 657.507724201 638.518456672 641.97701553 607 648 c 0
 493.325671636 670.828543196 514.903887711 500.475126744 429 472 c 0
 377.732140922 530.812498557 372.274070164 609.591082516 251 620 c 0
 246.345523416 620.399492345 206.049804688 636.595703125 203 640 c 4
EndSplineSet
EndChar

StartChar: W
Encoding: 87 87 32
Width: 1000
Flags: H
LayerCount: 2
Fore
SplineSet
181 594 m 5
 181 586 l 0
 220.415017269 459.196262822 189.07359602 266.74306448 321 192 c 0
 393.312554869 215.31856962 391.901080892 328.765921042 447 370 c 0
 505.771581886 330.181724891 543.072599644 247.783686076 621 242 c 0
 730.16993585 314.948710838 714.365336046 487.92610036 765 604 c 0
 752.258103864 632.338614978 720.953848165 630.089037579 691 630 c 0
 585.837075901 613.449761437 669.778862182 459.895275174 587 428 c 0
 525.916000766 447.054457065 469.677122064 518.344710224 397 504 c 0
 374.352028369 491.488062599 375.118010447 454.458167825 343 452 c 0
 312.55007523 500.351234209 308.870815917 597.571774059 237 604 c 0
 181 594 l 5
EndSplineSet
EndChar

StartChar: X
Encoding: 88 88 33
Width: 1000
Flags: H
LayerCount: 2
Fore
SplineSet
469 470 m 5
 422.488649379 552.905352456 324.173936501 617.279745988 233 610 c 0
 175.705185887 605.425318801 180.964736313 541.617315841 181 502 c 0
 227.564746797 420.414810193 343.952939107 421.682820833 403 362 c 0
 389.598247187 250.822885362 232.69274535 284.489662643 199 200 c 0
 222.772130027 141.457701618 299.923736509 144.328162663 351 144 c 0
 440.943539165 150.220335794 497.69017539 234.997508431 517 308 c 0
 593.910626489 269.888647532 654.314530133 176.784532017 751 188 c 0
 799.606837347 180.21298537 828.74760257 225.830527433 825 266 c 0
 798.557739435 363.039114067 670.682416832 353.941375477 617 406 c 0
 623.212839024 479.335030206 737.676803627 492.936160816 731 572 c 0
 706.589367233 605.717782053 663.471613913 606.017392681 625 608 c 0
 568.318880693 593.323646156 510.825711755 546.760769565 481 504 c 0
 469 470 l 5
EndSplineSet
EndChar

StartChar: Y
Encoding: 89 89 34
Width: 1000
Flags: H
LayerCount: 2
Fore
SplineSet
406 400 m 1
 352.187080791 470.803463662 241.468969581 550.28849125 264 652 c 0
 280.528744578 726.615475521 282.485759624 616.548455289 320 686 c 0
 440.99361407 695.131333719 460.998163111 571.424581376 502 494 c 0
 564.955976038 523.618557451 581.281794347 630.674106833 666 612 c 0
 707.430892159 599.94744715 734.17003558 560.454232946 736 520 c 0
 708.437251539 419.926921897 499.289915948 467.987280587 532 334 c 0
 530.570672013 269.015020186 548.125779556 205.737957485 548 142 c 0
 547.087225375 127.460145471 548.297267439 106.741426148 518 106 c 0
 379.129468056 102.601599672 403.819335938 204.553710938 399 305 c 4
 406 400 l 1
EndSplineSet
EndChar

StartChar: Z
Encoding: 90 90 35
Width: 1000
Flags: H
LayerCount: 2
Fore
SplineSet
283 606 m 5
 388.215187392 587.466320887 630.000959051 659.478078259 595 564 c 0
 563.261976837 477.422787787 456.735718745 447.244926121 391 394 c 0
 452.419027484 362.314939546 607.137247756 421.650238649 617 328 c 0
 595.608389827 319.987944746 589.698056002 326.382238017 571 324 c 0
 471.141771994 332.267625925 345.969986445 320.089850047 265 382 c 0
 310.121328979 449.683256651 389.891078018 498.159092205 467 516 c 0
 424.515063153 550.73477662 273.48877329 488.618433991 273 568 c 0
 283 606 l 5
EndSplineSet
EndChar

StartChar: a
Encoding: 97 97 36
Width: 1000
Flags: HW
LayerCount: 2
Fore
SplineSet
478 466 m 0
 490 463 l 0
 510.813850489 453.326050383 527.868820348 434.601870112 530 411 c 0
 531.824771985 386.590179773 524.349904114 356.318511165 495 354 c 0
 462.761548673 349.653656122 421.809611876 368.159104924 429 407 c 0
 429.480779445 430.230789377 434.298034269 462.995028321 464 464 c 0
 466.609117673 464.088279994 475.729492188 466.014648438 478 466 c 0
204 174 m 4
 201 170 l 0
 196.923051205 163.692914656 199.483627555 161.946827826 195 156 c 0
 186.11926054 133.769772289 243.549875963 156.961644459 235 144 c 0
 369.884704987 98.8076407261 370.514116399 258.278559266 437 288 c 0
 597.650954444 353.948081181 602.642235895 92.4978133804 755 152 c 0
 763.915183537 152.29810901 767.762513904 151.234705228 767 158 c 0
 698.357196113 332.318327391 593.857824969 501.727333107 493 658 c 0
 384.502007127 826.110612183 350.581054688 298.790039062 204 174 c 4
EndSplineSet
EndChar

StartChar: b
Encoding: 98 98 37
Width: 1000
Flags: HW
LayerCount: 2
Fore
SplineSet
418 316 m 0
 436 316 l 0
 464.502682129 321.233062424 480.681488039 288.927449695 482 266 c 0
 476.718711478 238.972193332 446.158454691 242.017683369 426 242 c 0
 409.705976363 250.463623741 372.35283493 249.252426073 374 278 c 0
 374.52265186 287.121716616 404.948242188 319.790039062 418 316 c 0
385 484 m 1
 380.311523438 486.512695312 363.953847851 514.287961273 363 526 c 0
 361.559944803 543.682046698 379.135006203 559.550412276 396 556 c 0
 436.87240933 557.531801467 474.879804666 513.677902068 474 475 c 0
 472.383231665 452.330179977 440.709363307 457.345140519 426 457 c 0
 385 484 l 1
324 661 m 5
 304.826889893 582.718726567 270.604548125 496.748163812 285 415 c 0
 299.157909747 334.600778406 259.278549997 131.978617317 402 157 c 0
 473.02516766 149.977592608 588.489582961 175.773816707 588 265 c 0
 602.01862934 336.081442765 544.359276877 387.840422488 483 397 c 0
 530.464937925 429.481963034 583.054432987 478.425377228 576 541 c 0
 573.0319346 571.321350655 544.763658982 590.081779155 519 601 c 0
 342 655 l 0
 324 661 l 5
EndSplineSet
EndChar

StartChar: c
Encoding: 99 99 38
Width: 1000
Flags: HW
LayerCount: 2
Fore
SplineSet
627 388 m 5
 625 396 l 0
 619.31264602 403.272891449 609.989236074 406.315731793 601 405 c 0
 584.554069224 380.352435174 563.005035427 343.603729465 522 352 c 0
 457.331087525 355.105292669 377.312093598 398.098486332 372 469 c 0
 367.380440562 509.241522549 412.752783441 525.359837132 445 528 c 0
 489.315278224 533.470752306 527.255690066 502.830244263 571 504 c 0
 592.090828014 496.725230189 602.627808061 517.326027469 599 535 c 0
 599 539 l 0
 576.184570312 601.416992188 486.533705526 626.382590176 430 627 c 0
 333.789944009 628.050718915 263.017408058 532.849295912 269 442 c 0
 276.364522546 326.343954921 401.910012082 258.932769567 508 267 c 0
 538.719838001 270.894327058 565.19030999 287.803328576 586 310 c 0
 613 343 l 0
 627 388 l 5
EndSplineSet
EndChar

StartChar: d
Encoding: 100 100 39
Width: 1000
Flags: HW
LayerCount: 2
Fore
SplineSet
401 522 m 1
 401 500.666666667 405.687921844 478.811883622 401 458 c 0
 389.669688875 407.699435192 396.181029589 336.334472457 469 350 c 0
 506.574187013 378.132031668 513.615835583 440.809807851 523 486 c 0
 519.932689508 521.870572805 474.140030756 521.852691914 449 540 c 0
 401 522 l 1
339 674 m 4
 413 668 l 0
 525.689503219 647.291359964 650.334381672 561.015715931 641 430 c 0
 643.170488596 313.046162031 530.780218344 220.12583496 425 206 c 0
 237.99810868 200.591361362 313.818043042 438.294721458 295 552 c 0
 291.405514501 573.719154006 328.728515625 657.755859375 339 674 c 4
EndSplineSet
EndChar

StartChar: e
Encoding: 101 101 40
Width: 1000
Flags: HW
LayerCount: 2
Fore
SplineSet
611 638 m 5
 565.502014893 638.145220151 518.863341143 649.406143374 471 652 c 0
 376.571068767 657.117384268 225.211899434 626.323126056 259 496 c 0
 243.22522386 328.1960065 307.657843974 81.1914216171 527 120 c 0
 584.470601822 113.742652217 624.067439297 164.119571382 635 212 c 0
 612.976021797 291.069917577 483.090023844 253.203490167 449 324 c 0
 464.634563277 432.517301068 672.085528277 291.569812422 651 424 c 0
 621.871609647 501.599553562 474.504267294 430.197866899 473 516 c 0
 479.176167171 545.205659117 513.407468652 540.817765112 533 542 c 0
 563.192273211 542.034214334 591.521311879 528.414491956 621 532 c 0
 646.551803125 533.907539181 681.844967143 553.887742889 677 582 c 0
 676.652080926 597.546575263 667.473540729 611.407320645 653 616 c 0
 611 638 l 5
EndSplineSet
EndChar

StartChar: f
Encoding: 102 102 41
Width: 1000
Flags: HW
LayerCount: 2
Fore
SplineSet
587 640 m 5
 520.744754177 671.741611119 439.030741906 633.179226303 369 654 c 0
 212.671511035 700.477875324 173.662049942 557.122719221 189 442 c 0
 201.34489742 366.950275852 207.865341144 226.024000428 295 206 c 0
 332.355757037 200.930676659 376.324998371 232.271351395 369 272 c 0
 368.924904756 290.112498065 355.281448703 303.783845321 355 322 c 0
 383.464029002 397.946697913 562.524367766 308.756548277 551 420 c 0
 525.134574841 518.18844175 345.796537793 412.304225563 345 514 c 0
 337.334549242 537.046835068 356.826761769 554.757124447 379 546 c 0
 428.160260583 534.347660741 480.600317014 530.313813739 529 532 c 0
 570.362241039 523.63149732 607.492477584 566.647645125 611 604 c 0
 611.196834061 609.20741872 609.932074525 612.54881187 607 618 c 0
 587 640 l 5
EndSplineSet
EndChar

StartChar: g
Encoding: 103 103 42
Width: 1000
Flags: HW
LayerCount: 2
Fore
SplineSet
661 524 m 5
 633.767717435 589.587523412 550.695132883 602.241900775 487 612 c 0
 339.759035305 634.557327042 244.310745746 485.173599308 267 352 c 0
 283.572528938 256.545223506 384.704172386 200.980163626 471 198 c 0
 544.820650505 208.922806079 651.776384721 245.828067665 657 332 c 0
 660.441870657 403.562536726 600.686786935 476.760246378 521 466 c 0
 489.107983577 465.048495331 445.60555398 443.186514794 457 406 c 0
 447.15550393 328.606027573 541.914938628 383.501724996 553 336 c 0
 548.214371636 305.953763737 514.819353752 313.107885291 493 312 c 0
 420.746467696 319.239884256 387.095871024 384.524495048 395 450 c 0
 382.029862374 503.963210445 437.370444666 531.517882691 479 520 c 0
 530.584580802 513.949326388 574.717869826 500.636481547 625 496 c 0
 631 496 l 0
 661 524 l 5
EndSplineSet
EndChar

StartChar: h
Encoding: 104 104 43
Width: 1000
Flags: HW
LayerCount: 2
Fore
SplineSet
259 626 m 4
 247.421487371 561.264856787 240.8928102 468.201395078 241 396 c 0
 241.130631363 308.008729941 265.182140971 175.721892165 379 180 c 0
 408.054814226 201.334037022 410.061690374 239.097735304 409 270 c 0
 407.173682576 293.623397743 401.236580937 316.249187732 399 340 c 0
 408.69975163 377.620649568 459.194228113 370.80994067 487 374 c 0
 509.545466168 365.184533028 560.173448276 381.699818379 553 342 c 0
 552.202762636 318.804768405 547.68405491 297.059091789 549 274 c 0
 546.319638313 234.420027728 596.510968371 201.621586818 631 206 c 0
 757.178901116 217.29178912 697.349353239 393.139966247 719 476 c 0
 729.872679867 559.173031396 693.262371676 659.02568029 587 644 c 0
 516.55415899 620.608540067 605.375426531 436.190323392 467 470 c 0
 435.924875902 452.940721435 426.380953551 489.018580651 429 508 c 0
 430.107507263 530.569882557 432.482622846 553.759589219 431 576 c 0
 426.376201991 645.360301124 312.970703125 629.842773438 259 626 c 4
EndSplineSet
EndChar

StartChar: i
Encoding: 105 105 44
Width: 1000
Flags: HW
LayerCount: 2
Fore
SplineSet
559 648 m 4
 559.245117188 648.196289062 558.754882812 647.803710938 558.754882812 647.803710938 c 0
 604.222543466 591.494669062 603.110726728 511.308156304 611 448 c 0
 624.788130217 337.35595551 594.144912801 210.420941503 479 162 c 0
 398.078061451 213.762715082 391.346652898 355.879159027 375 448 c 0
 380.661335293 529.601936817 384.927883018 656.828677872 487 670 c 0
 498.513110682 671.485644601 557.413085938 649.38671875 559 648 c 4
EndSplineSet
EndChar

StartChar: j
Encoding: 106 106 45
Width: 1000
Flags: HW
LayerCount: 2
Fore
SplineSet
325 686 m 5
 403.130869173 658.399606729 662.159847451 681.130032124 593 612 c 0
 559.230174301 578.244732726 466.149999032 631.790131644 487 556 c 0
 493.440727725 465.046888067 517.853200499 376.23838067 525 286 c 0
 534.790921735 203.539862206 446.55704544 178.896938695 379 186 c 0
 336.018914305 195.944392749 228.502389531 196.747695291 241 270 c 0
 293.31027467 326.235583781 446.581627587 237.602114343 429 362 c 0
 429.521002341 419.079558649 410.340135603 474.991003409 413 532 c 0
 413 551.333333333 413 570.666666667 413 590 c 0
 407.936333574 632.216093592 318.325315928 616.25276518 331 662 c 0
 325 686 l 5
EndSplineSet
EndChar

StartChar: k
Encoding: 107 107 46
Width: 1000
Flags: HW
LayerCount: 2
Fore
SplineSet
252 647 m 4
 239.8515625 571.359375 202.62976548 496.014228893 227 422 c 0
 259.251476227 324.049849307 171.532671941 107.050956025 333 104 c 0
 383.875579782 123.096749078 371.026788913 200.853652848 385 246 c 0
 387.379487179 268 381.772583826 290 383 312 c 0
 459.075702787 258.976576473 537.974754228 194.429778192 637 198 c 0
 669.790533856 217.603439206 689.37372899 272.375736927 683 312 c 0
 640.668489502 404.028998853 502.55946773 395.378494407 447 474 c 0
 511.693970089 516.602259185 623.658386714 503.323265956 655 584 c 0
 650.674081509 640.840645771 592.227417741 669.080320366 539 668 c 0
 480.823041134 653.932270063 374.711420131 535.773002607 375 610 c 0
 375.164324407 652.266660434 350.262695312 739.72265625 302 715 c 4
 270.875976562 699.056640625 268.280273438 696.288085938 252 647 c 4
EndSplineSet
EndChar

StartChar: l
Encoding: 108 108 47
Width: 1000
Flags: HW
LayerCount: 2
Fore
SplineSet
277 614 m 4
 303 610 l 0
 358.789092837 584.435084433 426.942656072 558.693625406 431 490 c 0
 440.204499671 437.667918165 412.632406492 391.873869221 411 340 c 0
 441.599925061 247.033838241 684.910328603 360.970036398 667 214 c 0
 688.504246248 116.966721813 610.643204429 84.4894516185 523 106 c 0
 197.585632644 11.4572588096 281.985811078 356.663071656 265 550 c 0
 261.003325251 595.491193559 278.033203125 592.53125 277 614 c 4
EndSplineSet
EndChar

StartChar: m
Encoding: 109 109 48
Width: 1000
Flags: HW
LayerCount: 2
Fore
SplineSet
283 258 m 4
 336.650850929 243.140932023 386.867320717 262.414971386 381 330 c 0
 377.96178127 364.996910807 376.881591757 402.354662153 383 436 c 0
 404.882481359 427.015355382 410.54011812 399.791984019 437 398 c 0
 468.914612722 393.734187598 489.625361798 428.525689724 521 432 c 0
 556.85135055 441.156549921 563.880398842 400.474833984 569 374 c 0
 568.482047654 348.862365597 554.337732703 326.975251984 553 302 c 0
 550.871885834 281.88287237 554.852628712 254.044661587 579 252 c 0
 615.259269411 249.306142698 658.654875928 262.502906579 659 302 c 0
 657.3593761 343.672244554 652.894327024 385.77231964 655 428 c 0
 650.326471293 471.064904741 635.344854536 544.76548465 585 550 c 0
 534.772182071 554.671980217 504.870857162 497.454138559 473 474 c 0
 420.962165825 482.987489435 428.343201757 558.649751929 381 572 c 0
 306.820299906 588.303791262 280.661835879 505.661432051 281 448 c 0
 281.386374262 382.118104552 290.024414062 322.819335938 283 258 c 4
EndSplineSet
EndChar

StartChar: n
Encoding: 110 110 49
Width: 1000
Flags: HW
LayerCount: 2
Fore
SplineSet
279 242 m 4
 337 244 l 0
 351.019118157 244.385995999 372.240020693 256.298554661 373 276 c 0
 373.056204834 299.039276888 373.576726286 324.202847986 369 346 c 0
 401.420033504 313.672508068 446.110671783 243.456199159 507 254 c 0
 614.371352306 302.047774653 612.910674147 448.108118532 639 546 c 0
 648.739992343 581.926208191 625.674804497 613.456569076 587 612 c 0
 546.371402808 558.700604352 546.216177184 459.086593707 483 416 c 0
 397.384390161 424.553460362 405.63361338 561.448840352 315 570 c 0
 200.654830319 580.788313127 333.759765625 338.357421875 279 242 c 4
EndSplineSet
EndChar

StartChar: o
Encoding: 111 111 50
Width: 1000
Flags: HW
LayerCount: 2
Fore
SplineSet
497 452 m 1
 494.109290401 458.624542831 459.571900999 452.021591926 433 456 c 0
 387.111081106 462.870597833 399.367696894 408.926556766 395 386 c 0
 392.42353879 324.442188697 471.94911861 308.931647736 515 316 c 0
 543.844228334 324.204716276 577.170641587 335.950239095 569 370 c 0
 571.338920417 395.324451333 552.035992397 416.76629404 537 434 c 0
 497 452 l 1
523 598 m 4
 549 592 l 0
 646.414674876 556.830072924 753.328242255 482.59139014 755 364 c 0
 775.614456675 214.93853283 585.119327406 173.553138319 475 184 c 0
 343.155942361 171.361311985 204.830363348 270.438121209 221 412 c 0
 238.748847619 567.387549477 394.174804688 624.038085938 523 598 c 4
EndSplineSet
EndChar

StartChar: p
Encoding: 112 112 51
Width: 1000
Flags: HW
LayerCount: 2
Fore
SplineSet
391 524 m 1
 426.005526174 529.154925285 464.599748487 514.147694025 489 486 c 0
 471 476 l 0
 450.146814613 478.057572948 397.78515625 480.762695312 394 511 c 0
 391 524 l 1
288 590 m 4
 283 530 l 0
 272.475730438 434.638395628 278.160678548 337.557279321 267 242 c 0
 257.793753419 187.903250667 336.268873255 191.01146918 373 180 c 0
 398.780794938 166.954674447 429.443436108 188.576355846 427 218 c 0
 429.696930791 276.847890723 416.886984991 335.51137361 413 394 c 0
 438.979923358 466.184093438 589.999761507 390.059727689 607 486 c 0
 585.000496107 583.176868971 441.834439109 595.443164234 365 604 c 0
 339.465657732 606.843688009 299.380859375 615.426757812 288 590 c 4
EndSplineSet
EndChar

StartChar: q
Encoding: 113 113 52
Width: 1000
Flags: HW
LayerCount: 2
Fore
SplineSet
499 534 m 5
 495 534 l 0
 467.021027301 545.362429732 421.802109584 550.427072508 393 550 c 0
 346.034777032 529.677971248 309.800952179 482.186068507 313 432 c 0
 320.026854282 395.665023989 358.15363121 370.903872513 391 372 c 0
 425.188644508 366.707103185 461.904813029 392.743993168 483 414 c 0
 477.109454 424.137068837 448.390072568 440.800216398 447 462 c 0
 445.424841809 476.940147415 463.811147511 487.418266438 477 484 c 0
 495.447078579 484.326333958 510.573311592 462.638040373 527 466 c 0
 543.015197318 461.665326855 548.681583772 481.415649117 547 494 c 0
 546.9622139 510.61288567 524.633968301 515.297543933 519 524 c 0
 499 534 l 5
559 636 m 0
 629 618 l 0
 650.418664055 604.489137168 665.655142021 584.875600376 675 564 c 0
 686.056892393 503.062556021 634.378864747 455.576400719 617 408 c 0
 645.637131856 384.904764736 705.499745732 393.170669764 729 356 c 0
 732.849278911 320.396253216 691.066061411 294.43551154 669 282 c 0
 624.177126688 285.401041094 572.860554397 286.983970113 551 334 c 0
 529.362680654 282.988227254 456.345540231 265.325709655 399 258 c 0
 314.774215518 253.290897536 214.090920586 305.548760984 201 398 c 0
 164.1520882 530.12601174 279.928405918 639.275974917 409 640 c 0
 439.945187956 640.173586547 539.362304688 679.489257812 559 636 c 0
EndSplineSet
EndChar

StartChar: r
Encoding: 114 114 53
Width: 1000
Flags: HW
LayerCount: 2
Fore
SplineSet
369 580 m 4
 353 578 l 0
 351 562 l 0
 351.717115846 542.922489188 358.86262516 517.268977684 383 518 c 0
 433.203336655 524.044531137 475.666219772 521.420856949 521 548 c 0
 513.520874841 593.153636118 461.318135139 580.859714299 427 590 c 0
 398.460793971 597.601126801 372.12109375 593.799804688 369 580 c 4
287 660 m 1
 393.951953262 663.911437968 638.805280912 662.363475114 611 542 c 0
 595.497270464 474.891798266 518.557342764 457.223135536 455 460 c 0
 518.387050786 400.788492275 591.576491171 354.603744434 649 292 c 0
 616.617750877 265.800291652 576.786121462 279.321753497 539 274 c 0
 464.942248013 280.111909667 379.701888477 332.983769117 351 396 c 0
 355.314117394 348.479563966 365.559359111 301.029423469 371 254 c 0
 363.383006694 249.440924945 334.476588182 242.525885007 323 246 c 0
 248.09427464 322.075976716 279.027607157 486.551873304 267 596 c 0
 269.05804544 611.333333333 270.951447246 626.666666667 267 642 c 0
 287 660 l 1
EndSplineSet
EndChar

StartChar: s
Encoding: 115 115 54
Width: 1000
Flags: HW
LayerCount: 2
Fore
SplineSet
669 559 m 4
 657 571 l 0
 605.481445312 609.9375 542.986195782 621.416430331 477 622 c 0
 415.909582061 622.540272318 325.054443919 614.019002167 300 556 c 0
 316.077974389 445.215799943 494.925832044 462.827171407 504 346 c 0
 508.214317083 323.596875243 479.135092454 315.828787459 462 319 c 0
 442.149057574 317.214670853 425.892171693 321.318441034 408 328 c 0
 379.569572836 334.861629162 352.982244397 350.424731553 327 358 c 0
 315.972400507 344.383816553 308.669088082 321.28976112 312 301 c 0
 346.617164396 183.540071945 519.851566353 211.804754698 615 199 c 0
 673.26009787 213.317840677 698.011221249 278.542025995 696 334 c 0
 692.464344755 419.382612366 573.530867219 419.781492185 558 487 c 0
 565.844927974 512.285322159 600.752837219 502.903129019 621 499 c 0
 652.219765014 492.981637225 687.459960938 515.272460938 669 559 c 4
EndSplineSet
EndChar

StartChar: t
Encoding: 116 116 55
Width: 1000
Flags: HW
LayerCount: 2
Fore
SplineSet
301 610 m 4
 244.060668682 599.951882709 212.611318342 504.843455252 245 504 c 0
 629 494 364.098518806 247.12646992 491 170 c 0
 522.61076547 173.43988268 588.694326159 160.525232162 595 204 c 0
 590.070256146 262.611731348 592.754795688 321.520762127 585 380 c 0
 541.797479531 535.298673568 782.96903249 405.864787849 795 506 c 0
 813.098142111 656.633047456 498.520507812 609.499023438 371 614 c 4
 286 617 318 613 301 610 c 4
EndSplineSet
EndChar

StartChar: u
Encoding: 117 117 56
Width: 1000
Flags: HW
LayerCount: 2
Fore
SplineSet
255 604 m 5
 255 590 l 0
 257.000670195 547.768494469 250.999329805 506.231505531 253 464 c 0
 240.747854233 284.707595997 391.997380363 122.485893492 581 164 c 0
 756.895128257 111.096622825 804.6233936 304.616776061 787 436 c 0
 781.598115884 506.488290699 759.03769333 604.285165488 681 624 c 0
 550.417777279 610.182653833 666.143340331 369.606336249 501 376 c 0
 335.778313202 371.91567797 439.752186894 584.760701637 311 610 c 0
 255 604 l 5
EndSplineSet
EndChar

StartChar: v
Encoding: 118 118 57
Width: 1000
Flags: HW
LayerCount: 2
Fore
SplineSet
203 640 m 4
 284.924969439 507.387691078 294.264242994 166.883430601 447 218 c 0
 608.123475694 271.923714319 700.285621829 456.291102552 713 618 c 0
 702.514776667 657.507724201 638.518456672 641.97701553 607 648 c 0
 493.325671636 670.828543196 514.903887711 500.475126744 429 472 c 0
 377.732140922 530.812498557 372.274070164 609.591082516 251 620 c 0
 246.345523416 620.399492345 206.049804688 636.595703125 203 640 c 4
EndSplineSet
EndChar

StartChar: w
Encoding: 119 119 58
Width: 1000
Flags: HW
LayerCount: 2
Fore
SplineSet
181 594 m 5
 181 586 l 0
 220.415017269 459.196262822 189.07359602 266.74306448 321 192 c 0
 393.312554869 215.31856962 391.901080892 328.765921042 447 370 c 0
 505.771581886 330.181724891 543.072599644 247.783686076 621 242 c 0
 730.16993585 314.948710838 714.365336046 487.92610036 765 604 c 0
 752.258103864 632.338614978 720.953848165 630.089037579 691 630 c 0
 585.837075901 613.449761437 669.778862182 459.895275174 587 428 c 0
 525.916000766 447.054457065 469.677122064 518.344710224 397 504 c 0
 374.352028369 491.488062599 375.118010447 454.458167825 343 452 c 0
 312.55007523 500.351234209 308.870815917 597.571774059 237 604 c 0
 181 594 l 5
EndSplineSet
EndChar

StartChar: x
Encoding: 120 120 59
Width: 1000
Flags: HW
LayerCount: 2
Fore
SplineSet
469 470 m 5
 422.488649379 552.905352456 324.173936501 617.279745988 233 610 c 0
 175.705185887 605.425318801 180.964736313 541.617315841 181 502 c 0
 227.564746797 420.414810193 343.952939107 421.682820833 403 362 c 0
 389.598247187 250.822885362 232.69274535 284.489662643 199 200 c 0
 222.772130027 141.457701618 299.923736509 144.328162663 351 144 c 0
 440.943539165 150.220335794 497.69017539 234.997508431 517 308 c 0
 593.910626489 269.888647532 654.314530133 176.784532017 751 188 c 0
 799.606837347 180.21298537 828.74760257 225.830527433 825 266 c 0
 798.557739435 363.039114067 670.682416832 353.941375477 617 406 c 0
 623.212839024 479.335030206 737.676803627 492.936160816 731 572 c 0
 706.589367233 605.717782053 663.471613913 606.017392681 625 608 c 0
 568.318880693 593.323646156 510.825711755 546.760769565 481 504 c 0
 469 470 l 5
EndSplineSet
EndChar

StartChar: y
Encoding: 121 121 60
Width: 1000
Flags: HW
LayerCount: 2
Fore
SplineSet
406 400 m 1
 352.187080791 470.803463662 241.468969581 550.28849125 264 652 c 0
 280.528744578 726.615475521 282.485759624 616.548455289 320 686 c 0
 440.99361407 695.131333719 460.998163111 571.424581376 502 494 c 0
 564.955976038 523.618557451 581.281794347 630.674106833 666 612 c 0
 707.430892159 599.94744715 734.17003558 560.454232946 736 520 c 0
 708.437251539 419.926921897 499.289915948 467.987280587 532 334 c 0
 530.570672013 269.015020186 548.125779556 205.737957485 548 142 c 0
 547.087225375 127.460145471 548.297267439 106.741426148 518 106 c 0
 379.129468056 102.601599672 403.819335938 204.553710938 399 305 c 4
 406 400 l 1
EndSplineSet
EndChar

StartChar: z
Encoding: 122 122 61
Width: 1000
Flags: HW
LayerCount: 2
Fore
SplineSet
283 606 m 5
 388.215187392 587.466320887 630.000959051 659.478078259 595 564 c 0
 563.261976837 477.422787787 456.735718745 447.244926121 391 394 c 0
 452.419027484 362.314939546 607.137247756 421.650238649 617 328 c 0
 595.608389827 319.987944746 589.698056002 326.382238017 571 324 c 0
 471.141771994 332.267625925 345.969986445 320.089850047 265 382 c 0
 310.121328979 449.683256651 389.891078018 498.159092205 467 516 c 0
 424.515063153 550.73477662 273.48877329 488.618433991 273 568 c 0
 283 606 l 5
EndSplineSet
EndChar
